<?xml version="1.0" standalone="no"?>
<!DOCTYPE svg PUBLIC "-//W3C//DTD SVG 20010904//EN"
 "http://www.w3.org/TR/2001/REC-SVG-20010904/DTD/svg10.dtd">
<svg version="1.0" xmlns="http://www.w3.org/2000/svg"
 width="600.000000pt" height="300.000000pt" viewBox="0 0 600.000000 300.000000"
 preserveAspectRatio="xMidYMid meet">
<metadata>
Created by potrace 1.11, written by Peter Selinger 2001-2013
</metadata>
<g transform="translate(0.000000,300.000000) scale(0.100000,-0.100000)"
fill="#000000" stroke="none">
<path d="M3430 2994 c-27 -9 -90 -37 -90 -40 0 -2 9 -42 20 -89 11 -47 20 -90
20 -95 0 -13 -762 -13 -1022 0 -112 6 -300 17 -418 26 -609 42 -878 29 -1290
-62 -142 -32 -426 -108 -463 -125 -81 -37 -137 -229 -169 -579 -17 -192 -17
-868 0 -1060 32 -350 88 -542 169 -579 37 -17 321 -93 463 -125 412 -91 681
-104 1290 -62 118 9 306 20 418 26 260 13 1022 13 1022 0 0 -5 -9 -48 -20 -96
-11 -48 -19 -88 -18 -89 15 -12 71 -35 101 -40 99 -19 158 24 207 150 l33 85
303 0 c277 0 308 -2 353 -20 107 -42 210 -53 441 -47 283 7 431 38 613 128
105 52 157 89 248 176 239 229 359 570 359 1023 0 453 -120 794 -359 1023 -91
87 -143 124 -248 176 -182 90 -330 121 -613 128 -231 6 -334 -5 -441 -47 -45
-18 -76 -20 -353 -20 l-303 0 -33 84 c-33 87 -64 127 -113 145 -29 11 -80 13
-107 5z"/>
</g>
</svg>
